<?xml version="1.0" encoding="utf-8"?>
<?xml-stylesheet href="HebronMinistriesSvg.css" type="text/css" ?>
<!-- Generator: Adobe Illustrator 16.0.2, SVG Export Plug-In . SVG Version: 6.00 Build 0)  -->
<!DOCTYPE svg PUBLIC "-//W3C//DTD SVG 1.1//EN" "http://www.w3.org/Graphics/SVG/1.1/DTD/svg11.dtd">
<svg version="1.1" id="Layer_1" xmlns="http://www.w3.org/2000/svg" xmlns:xlink="http://www.w3.org/1999/xlink" x="0px" y="0px"
	 width="900px" height="600px" viewBox="0 0 900 600" enable-background="new 0 0 900 600" xml:space="preserve">
<rect x="288.983" y="157.139" fill="none" width="553.125" height="145.512"/>
<text transform="matrix(0.6993 0 0 1 288.9834 289.1924)" stroke="#cecece" stroke-width="0.7" stroke-miterlimit="10" font-family="'MyriadPro-Regular'" font-size="190.0082">HEBRON</text>
<rect x="56.25" y="302.068" fill="none" width="831" height="137.452"/>
<text transform="matrix(0.7815 0 0 1 56.251 426.8066)" stroke="#cecece" stroke-miterlimit="10" font-family="'MyriadPro-Regular'" font-size="179.4819">MINISTRIES</text>
<g>
	<path d="M101.348,205.499L56.25,282.597l138.859,0.771c0,0-3.508-8.247-17.567-6.7c-14.055,1.552-11.239,1.285-15.715,1.24
		c-6.152,0.877-20.271-5.369-22.829-7.105c-4.284-2.912-14.297-11.95-14.297-11.95l-9.089-0.206l-17.189,0.106l5.768-9.854
		l7.016-12.292c0,0-3.009-6.426-5.103-14.969C102.886,211.488,103.914,213.594,101.348,205.499z"/>
	<path d="M211.26,174.392l64.186,108.975c0,0-61.554,0-64.001,0c5.034-11.955,2.717-24.523,2.717-24.523l18.745-0.075
		l-29.321-48.943C216.154,187.576,211.26,174.392,211.26,174.392z"/>
	<path d="M115.138,182.366l34.454-58.445c0,0,9.718,22.111,10.411,29.847c-0.89,1.526-28.293,48.434-29.079,49.877
		C123.003,194.992,115.138,182.366,115.138,182.366z"/>
	<path d="M165.532,96.718l-11.634,19.736c0,0,33.869,23.331,43.797,35.004"/>
	<path d="M108.776,191.438c2.492,11.263,9.493,56.841,28.793,67.415c25.306,21.425,47.401-3.158,65.544,18.644
		c9.963-26.06-20.27-31.54-18.703-48.616c1.399-15.237,22.81-29.904,16.991-53.046c-4.407-17.518-36.478-40.2-35.869-38.249
		c10.265,32.977,0.839,36.671-9.927,45.324c-23.853,19.167-13.153,38.605-16.292,38.298
		C125.329,219.833,107.774,186.909,108.776,191.438z"/>
</g>
</svg>
