<?xml version="1.0" encoding="utf-8"?>
<!-- Generator: Adobe Illustrator 16.0.2, SVG Export Plug-In . SVG Version: 6.00 Build 0)  -->
<!DOCTYPE svg PUBLIC "-//W3C//DTD SVG 1.1//EN" "http://www.w3.org/Graphics/SVG/1.1/DTD/svg11.dtd">
<svg version="1.1" id="Layer_1" xmlns="http://www.w3.org/2000/svg" xmlns:xlink="http://www.w3.org/1999/xlink" x="0px" y="0px"
	 width="300px" height="300px" viewBox="0 0 300 300" enable-background="new 0 0 300 300" xml:space="preserve">
<g>
	<path d="M112.134,131.667c-0.582-0.402-1.145-0.839-1.743-1.212c-0.609-0.354-1.182-0.742-1.822-1.029
		c-0.615-0.326-1.254-0.592-1.895-0.839c-0.638-0.251-1.299-0.437-1.954-0.602l-0.992-0.206c-0.333-0.051-0.669-0.079-1-0.12
		c-0.33-0.051-0.667-0.046-0.999-0.055c-0.333-0.012-0.663-0.028-0.994,0.002c-0.662,0.013-1.317,0.109-1.967,0.202
		c-0.647,0.137-1.288,0.272-1.914,0.478c-0.626,0.198-1.246,0.417-1.845,0.695c-0.607,0.251-1.184,0.578-1.772,0.872l-1.753,0.929
		c-0.579,0.327-1.146,0.68-1.695,1.065c-1.099,0.767-2.148,1.617-3.142,2.531c-0.5,0.454-0.979,0.93-1.448,1.413
		c-0.458,0.478-0.934,1.003-1.31,1.469l-1.748-2.314c0.344-0.129,0.507-0.164,0.746-0.221c0.221-0.051,0.437-0.086,0.652-0.116
		c0.43-0.058,0.854-0.079,1.276-0.074c0.842,0.01,1.667,0.135,2.456,0.345c1.582,0.421,3.016,1.167,4.278,2.068
		c1.268,0.901,2.374,1.959,3.375,3.079c0.497,0.563,0.966,1.144,1.416,1.735l0.686,0.951l0.283,0.448l0.305,0.545
		c0.722,1.357,1.286,2.593,1.917,3.862c0.618,1.256,1.254,2.493,1.911,3.716c1.328,2.437,2.767,4.801,4.362,7.047
		c3.196,4.479,7.042,8.486,11.543,11.564c2.248,1.535,4.641,2.857,7.16,3.887c2.519,1.028,5.146,1.787,7.823,2.306
		c2.667,0.547,5.438,0.729,8.141,0.786c2.825-0.017,5.695,0.007,8.552,0.157c2.86,0.147,5.725,0.399,8.581,0.83
		c2.854,0.435,5.709,1.035,8.506,1.99c0.702,0.222,1.394,0.498,2.079,0.797c0.344,0.15,0.69,0.274,1.031,0.447
		c0.304,0.143,0.675,0.333,1.003,0.508c1.324,0.704,2.568,1.52,3.755,2.394c1.178,0.887,2.319,1.805,3.407,2.775
		c1.051,1.013,1.974,2.14,2.897,3.246c1.826,2.234,3.49,4.56,5.096,6.901l2.391,3.509c0.398,0.582,0.802,1.16,1.231,1.714
		c0.217,0.276,0.439,0.547,0.683,0.796c0.247,0.237,0.504,0.505,0.858,0.563c-0.366,0.003-0.684-0.229-0.974-0.428
		c-0.292-0.212-0.563-0.448-0.827-0.689c-0.527-0.485-1.027-0.995-1.521-1.508c-0.991-1.023-1.924-2.09-2.884-3.126
		c-1.909-2.081-3.853-4.113-5.898-5.996c-1.013-0.951-2.091-1.82-3.123-2.718c-1-0.932-2.022-1.835-3.119-2.627
		c-1.088-0.801-2.214-1.537-3.385-2.16c-0.296-0.155-0.553-0.29-0.888-0.448c-0.288-0.148-0.61-0.262-0.913-0.395
		c-0.61-0.266-1.229-0.516-1.876-0.718c-2.552-0.873-5.249-1.447-7.977-1.861c-2.731-0.411-5.503-0.656-8.286-0.799
		c-2.786-0.147-5.57-0.171-8.394-0.154c-2.939-0.06-5.833-0.256-8.708-0.839c-2.868-0.555-5.693-1.37-8.407-2.48
		c-2.714-1.108-5.296-2.533-7.711-4.185c-4.839-3.309-8.932-7.588-12.292-12.298c-1.677-2.362-3.181-4.833-4.556-7.358
		c-0.681-1.266-1.336-2.542-1.965-3.821c-0.626-1.262-1.243-2.594-1.849-3.731l-0.208-0.382l-0.283-0.448l-0.557-0.765
		c-0.405-0.533-0.824-1.052-1.262-1.548c-0.881-0.984-1.833-1.89-2.87-2.625c-1.033-0.739-2.153-1.306-3.305-1.612
		c-0.576-0.154-1.159-0.24-1.729-0.247c-0.285-0.003-0.567,0.011-0.838,0.047c-0.134,0.019-0.268,0.04-0.391,0.069
		c-0.105,0.02-0.284,0.077-0.271,0.072l-1.748-2.314c0.511-0.633,0.988-1.152,1.506-1.695c0.515-0.53,1.039-1.049,1.584-1.545
		c1.085-0.998,2.235-1.93,3.453-2.78c1.226-0.832,2.47-1.678,3.855-2.282c0.69-0.303,1.407-0.549,2.136-0.757
		c0.721-0.224,1.467-0.384,2.211-0.515c0.745-0.139,1.503-0.201,2.256-0.255c0.759-0.011,1.513-0.019,2.264,0.063
		c0.375,0.018,0.747,0.082,1.117,0.146c0.37,0.066,0.74,0.118,1.099,0.228c0.36,0.099,0.722,0.186,1.076,0.296l1.043,0.382
		c0.68,0.283,1.352,0.585,1.983,0.949l0.94,0.552c0.303,0.198,0.591,0.42,0.885,0.628c0.597,0.399,1.127,0.902,1.674,1.358
		C111.146,130.65,111.625,131.172,112.134,131.667z"/>
</g>
<path fill="none" stroke="#000000" stroke-miterlimit="10" d="M107.471,161.337"/>
<g>
	<path d="M143,150.25c0,0,0.647-0.33,1.798-0.807c0.576-0.234,1.273-0.53,2.081-0.826c0.397-0.164,0.847-0.281,1.275-0.483
		c0.421-0.198,0.864-0.405,1.326-0.623c0.916-0.434,1.91-0.814,2.932-1.302c1.009-0.547,2.066-1.103,3.168-1.638
		c1.056-0.62,2.099-1.321,3.201-1.947c0.532-0.342,1.012-0.767,1.538-1.126c0.508-0.384,1.059-0.72,1.537-1.141l1.44-1.253
		l0.726-0.615l0.657-0.679c0.434-0.454,0.875-0.895,1.323-1.325c0.4-0.472,0.797-0.938,1.186-1.397
		c0.2-0.229,0.397-0.455,0.594-0.68c0.177-0.239,0.353-0.477,0.525-0.711c0.355-0.47,0.703-0.93,1.042-1.378
		c0.591-0.95,1.257-1.816,1.732-2.694c0.54-0.853,0.972-1.671,1.373-2.405c0.386-0.736,0.73-1.393,0.99-1.945
		c0.247-0.555,0.479-0.994,0.599-1.302c0.135-0.309,0.207-0.474,0.207-0.474s0.159,0.715,0.167,1.984
		c0.001,0.633-0.012,1.41-0.112,2.292c-0.106,0.88-0.256,1.879-0.539,2.942c-0.228,1.086-0.677,2.19-1.107,3.395
		c-0.258,0.58-0.556,1.162-0.847,1.768c-0.147,0.302-0.295,0.61-0.462,0.91c-0.183,0.29-0.368,0.583-0.555,0.877
		c-0.372,0.592-0.764,1.19-1.177,1.783c-0.452,0.562-0.921,1.125-1.405,1.682l-0.726,0.845c-0.265,0.261-0.543,0.509-0.819,0.761
		l-1.67,1.506c-1.194,0.899-2.437,1.745-3.686,2.509c-0.65,0.337-1.304,0.654-1.95,0.961c-0.65,0.298-1.271,0.643-1.925,0.868
		c-1.312,0.438-2.587,0.822-3.791,1.167c-1.232,0.285-2.441,0.417-3.521,0.573c-0.541,0.063-1.058,0.124-1.551,0.182
		c-0.489,0.038-0.939,0.012-1.373,0.008c-0.86-0.013-1.616-0.062-2.238-0.093C143.721,150.348,143,150.25,143,150.25z"/>
</g>
<g>
	<path d="M152.712,128.5c0,0,0.611-0.32,1.699-0.779c0.544-0.226,1.203-0.511,1.966-0.794c0.377-0.154,0.796-0.277,1.21-0.456
		c0.398-0.187,0.817-0.384,1.255-0.589c0.869-0.404,1.805-0.784,2.777-1.212c0.957-0.512,1.96-1.03,3.004-1.527
		c1.021-0.541,1.999-1.215,3.051-1.784c0.532-0.277,0.97-0.699,1.478-1.021l1.479-1.031l1.376-1.153
		c0.457-0.384,0.942-0.736,1.34-1.173c0.415-0.418,0.838-0.824,1.269-1.218c0.421-0.402,0.76-0.866,1.157-1.274
		c0.802-0.814,1.418-1.727,2.104-2.542c0.319-0.423,0.592-0.859,0.891-1.267c0.148-0.206,0.295-0.408,0.438-0.606
		c0.128-0.208,0.254-0.412,0.377-0.611c0.524-0.791,0.962-1.547,1.351-2.233c0.387-0.684,0.718-1.298,0.981-1.813
		c0.242-0.52,0.474-0.93,0.593-1.22c0.135-0.291,0.206-0.446,0.206-0.446s0.159,0.677,0.172,1.883
		c-0.003,0.599-0.005,1.341-0.109,2.176c-0.061,0.419-0.124,0.865-0.191,1.334c-0.085,0.467-0.219,0.945-0.338,1.458
		c-0.224,1.031-0.666,2.074-1.098,3.209c-0.54,1.074-1.055,2.267-1.832,3.345c-0.369,0.552-0.728,1.134-1.161,1.663
		c-0.438,0.527-0.893,1.053-1.361,1.575c-0.449,0.543-0.969,1.021-1.51,1.479l-1.609,1.4c-1.182,0.781-2.337,1.621-3.563,2.27
		c-0.62,0.309-1.244,0.598-1.861,0.877c-0.623,0.263-1.206,0.604-1.843,0.768c-1.248,0.393-2.461,0.735-3.604,1.04
		c-1.183,0.222-2.319,0.35-3.346,0.472c-0.512,0.051-1.003,0.099-1.47,0.145c-0.46,0.012-0.888-0.007-1.297-0.022
		c-0.814-0.025-1.53-0.086-2.118-0.126C153.395,128.608,152.712,128.5,152.712,128.5z"/>
</g>
<g>
	<path d="M169.375,107.625c0,0,0.486-0.308,1.358-0.758c0.438-0.224,0.907-0.563,1.46-0.869c0.534-0.362,1.157-0.726,1.77-1.196
		c0.629-0.441,1.262-0.966,1.909-1.519c0.31-0.29,0.627-0.587,0.952-0.892c0.295-0.335,0.632-0.629,0.929-0.978
		c0.601-0.689,1.199-1.407,1.747-2.192c0.563-0.77,1.074-1.605,1.563-2.454c0.978-1.705,1.792-3.539,2.505-5.317
		c0.697-1.785,1.288-3.518,1.785-5.037c0.988-3.135,1.647-5.225,1.647-5.225s0.216,0.536,0.436,1.506
		c0.226,0.969,0.451,2.373,0.501,4.077c0.045,1.701-0.091,3.703-0.544,5.818c-0.245,1.053-0.523,2.145-0.946,3.217
		c-0.384,1.085-0.908,2.145-1.474,3.186c-0.613,1.016-1.256,2.025-2.039,2.914c-0.744,0.915-1.605,1.717-2.478,2.426
		c-0.438,0.354-0.898,0.667-1.344,0.97c-0.46,0.286-0.921,0.546-1.37,0.79c-0.922,0.452-1.813,0.814-2.663,1.053
		c-0.839,0.264-1.636,0.381-2.331,0.491c-0.716,0.065-1.334,0.114-1.821,0.1C169.946,107.698,169.375,107.625,169.375,107.625z"/>
</g>
<path fill="none" stroke="#000000" stroke-miterlimit="10" d="M123.833,128.5"/>
<g>
	<path d="M183.833,75.832c0,0-0.536,1.176-1.558,3.177c-0.504,1.002-1.143,2.21-1.936,3.567c-0.762,1.377-1.68,2.895-2.735,4.519
		c-1.064,1.621-2.223,3.381-3.62,5.146c-1.368,1.782-2.94,3.598-4.806,5.339c-1.854,1.724-4.12,3.423-6.978,4.402
		c-1.423,0.46-2.935,0.711-4.302,0.787c-1.37,0.089-2.576,0.093-3.633,0.248c-1.063,0.135-2.042,0.411-3.021,0.794
		c-0.961,0.451-1.938,0.937-2.868,1.59c-1.867,1.27-3.657,2.801-5.304,4.413c-1.667,1.586-3.225,3.233-4.682,4.821
		c-0.749,0.776-1.437,1.573-2.119,2.333c-0.682,0.76-1.365,1.475-1.979,2.201c-0.625,0.719-1.223,1.407-1.792,2.063
		c-0.298,0.332-0.588,0.655-0.87,0.969c-0.283,0.303-0.557,0.598-0.823,0.883c-1.053,1.149-2.013,2.12-2.795,2.926
		c-1.569,1.608-2.513,2.491-2.513,2.491s0.596-1.147,1.72-3.092c0.565-0.97,1.241-2.156,2.063-3.481
		c0.203-0.333,0.413-0.677,0.629-1.031c0.205-0.351,0.416-0.712,0.633-1.083c0.459-0.75,0.942-1.539,1.447-2.362
		c1.041-1.629,2.158-3.405,3.484-5.199c1.308-1.805,2.745-3.68,4.408-5.52c1.635-1.852,3.489-3.692,5.722-5.312
		c1.101-0.819,2.349-1.554,3.69-2.167c1.373-0.572,2.857-1.001,4.325-1.194c1.472-0.188,2.82-0.168,3.981-0.236
		c1.166-0.065,2.17-0.184,3.146-0.462c1.928-0.584,3.811-1.746,5.553-3.139c1.737-1.394,3.373-2.917,4.861-4.452
		c0.755-0.757,1.48-1.506,2.168-2.256c0.69-0.746,1.389-1.439,2.007-2.16c2.532-2.856,4.643-5.236,6.119-6.901
		C182.938,76.764,183.833,75.832,183.833,75.832z"/>
</g>
<g>
	<path d="M64.669,213.724l5.045,1.736c1.678,0.541,3.356,1.056,5.028,1.533l2.514,0.662c0.843,0.187,1.671,0.419,2.514,0.575
		c0.841,0.167,1.673,0.346,2.512,0.478c0.833,0.161,1.675,0.245,2.505,0.368c0.834,0.087,1.664,0.199,2.493,0.235
		c0.829,0.063,1.652,0.078,2.471,0.105c0.819-0.001,1.632-0.014,2.438-0.068c0.804-0.059,1.602-0.12,2.387-0.231
		c0.786-0.107,1.557-0.255,2.313-0.429c0.75-0.19,1.498-0.373,2.206-0.629c0.71-0.247,1.399-0.528,2.037-0.851
		c0.314-0.165,0.628-0.326,0.91-0.498c0.146-0.084,0.276-0.171,0.401-0.254l0.167-0.119c0.034-0.023,0.131-0.102,0.049-0.038
		l0.388-0.275c1.167-0.733,2.299-1.431,3.465-2.121c1.167-0.679,2.344-1.345,3.537-1.999c1.189-0.661,2.411-1.289,3.678-1.889
		c0.63-0.302,1.287-0.595,1.958-0.882l1.06-0.419c0.37-0.138,0.791-0.269,1.186-0.398l-0.24,0.08
		c0.993-0.346,1.998-0.668,3.026-0.94c1.029-0.271,2.071-0.513,3.136-0.686c2.125-0.349,4.327-0.456,6.525-0.295
		c2.196,0.199,4.392,0.666,6.447,1.482c2.059,0.805,3.972,1.916,5.664,3.244c3.398,2.66,5.896,6.089,7.69,9.694
		c0.902,1.806,1.636,3.672,2.198,5.576c0.281,0.951,0.548,1.901,0.746,2.868c0.191,0.968,0.377,1.933,0.458,2.912
		c-0.844-1.764-1.787-3.446-2.785-5.071c-1.016-1.616-2.093-3.167-3.25-4.624c-1.165-1.449-2.395-2.813-3.729-4.017
		c-1.323-1.213-2.742-2.268-4.221-3.137c-1.494-0.844-3.033-1.532-4.636-1.949c-1.596-0.433-3.233-0.654-4.889-0.649
		c-1.655-0.004-3.327,0.176-4.99,0.556c-0.833,0.168-1.665,0.396-2.492,0.647c-0.828,0.252-1.649,0.556-2.468,0.87l-0.24,0.08
		l-0.694,0.246l-0.783,0.322c-0.543,0.241-1.093,0.494-1.654,0.772c-1.117,0.557-2.25,1.142-3.39,1.743
		c-1.137,0.605-2.273,1.229-3.405,1.868l-3.386,1.906l0.388-0.275c-0.255,0.2-0.337,0.251-0.485,0.353l-0.384,0.248
		c-0.248,0.151-0.493,0.298-0.734,0.426c-0.485,0.268-0.965,0.494-1.451,0.702c-0.969,0.412-1.943,0.735-2.92,1.006
		c-1.953,0.54-3.925,0.819-5.873,0.903c-0.974,0.042-1.942,0.055-2.903,0.005c-0.961-0.045-1.911-0.138-2.855-0.246
		c-0.939-0.131-1.876-0.266-2.793-0.471c-0.925-0.173-1.826-0.422-2.729-0.646c-1.788-0.518-3.544-1.095-5.236-1.803
		c-0.854-0.333-1.678-0.732-2.511-1.098l-2.434-1.228c-0.792-0.443-1.584-0.88-2.359-1.34c-0.768-0.478-1.531-0.953-2.282-1.452
		c-0.743-0.515-1.502-0.996-2.216-1.537C66.083,214.82,65.368,214.288,64.669,213.724z"/>
</g>
<g>
	<path d="M57.273,213.631c0,0,1.484,0.875,4.083,2.406c1.273,0.774,2.877,1.639,4.686,2.636c1.817,0.987,3.887,2.04,6.156,3.116
		c2.284,1.047,4.771,2.107,7.436,3.043c2.666,0.929,5.505,1.748,8.451,2.262c2.932,0.519,6,0.759,8.902,0.463
		c0.72-0.08,1.43-0.189,2.074-0.335l0.453-0.116l0.19-0.058l0.057-0.021c0.006-0.002-0.017,0.005-0.024,0.008
		c0.01-0.004-0.264,0.102-0.128,0.049l0.073-0.032l1.191-0.508c1.583-0.675,3.176-1.334,4.785-1.964
		c3.227-1.275,6.424-2.508,9.833-3.547l1.32-0.381l1.302-0.317c0.814-0.183,1.624-0.365,2.429-0.546
		c0.894-0.157,1.782-0.313,2.665-0.469c0.881-0.128,1.747-0.189,2.608-0.284c3.455-0.29,6.917-0.069,10.098,0.738
		c3.184,0.777,6.066,2.16,8.326,3.909c2.298,1.705,3.947,3.747,5.139,5.629c1.187,1.901,1.887,3.7,2.343,5.188
		c0.466,1.488,0.647,2.694,0.749,3.509c0.102,0.815,0.089,1.254,0.089,1.254s-0.17-0.403-0.525-1.125
		c-0.36-0.719-0.931-1.749-1.731-2.974c-0.826-1.21-1.901-2.61-3.292-3.989c-1.403-1.364-3.112-2.716-5.17-3.741
		c-1.014-0.534-2.136-0.942-3.293-1.321c-0.6-0.146-1.183-0.341-1.813-0.442c-0.309-0.063-0.62-0.126-0.933-0.19
		c-0.319-0.041-0.642-0.082-0.965-0.123c-2.59-0.321-5.396-0.242-8.31,0.192c-0.725,0.128-1.456,0.257-2.192,0.387
		c-0.716,0.155-1.437,0.313-2.163,0.47c-0.796,0.215-1.598,0.431-2.404,0.647l-1.131,0.288l-1.098,0.33
		c-1.5,0.473-3.066,1.037-4.63,1.617c-1.571,0.566-3.153,1.156-4.732,1.763c-1.581,0.608-3.161,1.217-4.735,1.823l-1.171,0.457
		l-0.074,0.028l-0.202,0.077l-0.1,0.033l-0.247,0.074l-0.423,0.112c-0.272,0.068-0.529,0.12-0.786,0.172
		c-1.016,0.194-1.985,0.305-2.944,0.35c-3.822,0.19-7.405-0.37-10.721-1.249c-3.314-0.891-6.354-2.113-9.094-3.483
		c-2.747-1.36-5.204-2.856-7.38-4.341c-1.08-0.756-2.111-1.477-3.048-2.221c-0.957-0.714-1.827-1.439-2.638-2.123
		c-1.627-1.361-2.96-2.64-4.053-3.697c-1.106-1.041-1.885-1.935-2.448-2.517C57.565,213.95,57.273,213.631,57.273,213.631z"/>
</g>
<g>
	<path d="M42.967,213.048c0,0,1.495,1.084,4.11,2.979c2.637,1.864,6.366,4.583,10.96,7.636c2.296,1.521,4.798,3.157,7.495,4.711
		c1.348,0.755,2.75,1.545,4.138,2.13c1.53,0.605,3.093,1.224,4.683,1.852c6.279,2.408,13.258,3.93,20.235,3.693
		c3.477-0.164,6.918-0.69,10.189-1.641c0.83-0.174,1.616-0.529,2.417-0.78c0.79-0.297,1.6-0.498,2.368-0.831
		c0.769-0.326,1.53-0.654,2.295-0.951c0.841-0.331,1.677-0.66,2.505-0.986c0.813-0.298,1.619-0.593,2.417-0.885l0.602-0.217
		l0.688-0.185c0.459-0.113,0.917-0.227,1.371-0.339c0.908-0.209,1.811-0.469,2.691-0.615c0.879-0.113,1.748-0.225,2.604-0.334
		c0.429-0.048,0.849-0.117,1.275-0.144c0.427-0.01,0.852-0.019,1.273-0.028c0.839-0.011,1.665-0.021,2.478-0.032
		c0.812,0.071,1.609,0.142,2.393,0.21c0.39,0.04,0.775,0.06,1.155,0.117c0.378,0.073,0.753,0.146,1.124,0.217
		c2.973,0.472,5.566,1.484,7.745,2.476c2.168,1.06,3.915,2.197,5.247,3.257c1.331,1.064,2.275,1.997,2.869,2.685
		c0.602,0.669,0.879,1.086,0.879,1.086l-0.487,0.502c0,0-0.383-0.232-1.153-0.619c-0.757-0.394-1.902-0.912-3.36-1.478
		c-0.739-0.269-1.542-0.571-2.448-0.813c-0.875-0.307-1.865-0.51-2.894-0.755c-2.092-0.377-4.422-0.778-6.98-0.75
		c-0.317-0.008-0.637-0.016-0.961-0.023c-0.324,0.005-0.653,0.035-0.982,0.052c-0.657,0.036-1.326,0.074-2.007,0.111
		c-0.676,0.094-1.364,0.188-2.063,0.284c-0.348,0.047-0.697,0.094-1.05,0.142c-0.352,0.056-0.704,0.153-1.058,0.229
		c-0.707,0.156-1.423,0.314-2.149,0.476c-0.717,0.163-1.386,0.416-2.092,0.615c-0.349,0.105-0.701,0.21-1.054,0.316l-0.534,0.146
		l-0.592,0.222c-0.795,0.301-1.597,0.604-2.406,0.912c-0.792,0.281-1.59,0.564-2.395,0.851c-0.879,0.324-1.774,0.621-2.671,0.923
		c-0.895,0.31-1.843,0.492-2.773,0.726c-0.941,0.197-1.857,0.494-2.827,0.607c-3.816,0.693-7.754,0.924-11.657,0.847
		c-3.91-0.12-7.776-0.729-11.46-1.679c-3.688-0.942-7.176-2.313-10.386-3.834c-1.576-0.771-3.126-1.528-4.643-2.27
		c-0.846-0.407-1.525-0.886-2.279-1.317c-0.694-0.469-1.38-0.932-2.057-1.388c-2.648-1.867-5.014-3.744-7.191-5.488
		c-4.331-3.506-7.841-6.518-10.257-8.678c-2.407-2.168-3.783-3.406-3.783-3.406L42.967,213.048z"/>
</g>
<g>
	<path d="M242.666,213.797c-0.699,0.564-1.415,1.096-2.125,1.64c-0.714,0.54-1.474,1.021-2.217,1.535
		c-0.752,0.498-1.516,0.974-2.284,1.449c-0.775,0.46-1.567,0.896-2.36,1.339l-2.435,1.226c-0.834,0.365-1.658,0.764-2.513,1.096
		c-1.692,0.707-3.449,1.282-5.237,1.799c-0.904,0.224-1.806,0.472-2.73,0.645c-0.918,0.204-1.854,0.339-2.794,0.469
		c-0.944,0.107-1.895,0.199-2.855,0.244c-0.961,0.048-1.93,0.035-2.903-0.008c-1.947-0.086-3.92-0.366-5.872-0.907
		c-0.978-0.271-1.951-0.597-2.92-1.009c-0.485-0.208-0.965-0.436-1.449-0.703c-0.242-0.129-0.486-0.274-0.734-0.427l-0.384-0.248
		c-0.147-0.103-0.23-0.152-0.485-0.353l0.388,0.274l-3.384-1.909c-1.131-0.64-2.267-1.265-3.403-1.871
		c-1.139-0.603-2.272-1.188-3.388-1.746c-0.562-0.278-1.11-0.531-1.653-0.772l-0.783-0.323l-0.693-0.247l-0.24-0.08
		c-0.818-0.315-1.639-0.619-2.467-0.872c-0.827-0.253-1.658-0.481-2.492-0.649c-1.662-0.382-3.334-0.563-4.988-0.56
		c-1.656-0.007-3.293,0.213-4.89,0.645c-1.604,0.415-3.144,1.103-4.638,1.945c-1.479,0.867-2.899,1.921-4.223,3.133
		c-1.336,1.201-2.567,2.564-3.733,4.014c-1.157,1.455-2.236,3.005-3.253,4.62c-0.999,1.625-1.943,3.307-2.789,5.069
		c0.082-0.979,0.268-1.944,0.46-2.912c0.2-0.967,0.467-1.916,0.749-2.867c0.564-1.903,1.299-3.769,2.203-5.574
		c1.797-3.604,4.298-7.03,7.697-9.688c1.692-1.327,3.607-2.437,5.667-3.239c2.056-0.814,4.252-1.279,6.448-1.477
		c2.198-0.159,4.4-0.051,6.524,0.301c1.065,0.174,2.107,0.416,3.135,0.688c1.028,0.273,2.033,0.597,3.026,0.943l-0.24-0.08
		c0.394,0.13,0.815,0.261,1.185,0.398l1.06,0.421c0.672,0.287,1.329,0.581,1.959,0.883c1.266,0.601,2.486,1.229,3.676,1.892
		c1.192,0.656,2.369,1.323,3.535,2.003c1.165,0.69,2.296,1.39,3.463,2.123l0.388,0.275c-0.082-0.063,0.015,0.016,0.049,0.039
		l0.167,0.119c0.126,0.083,0.256,0.171,0.402,0.255c0.28,0.171,0.595,0.333,0.909,0.498c0.637,0.323,1.326,0.604,2.036,0.853
		c0.708,0.256,1.455,0.439,2.205,0.63c0.757,0.176,1.527,0.323,2.313,0.432c0.785,0.111,1.583,0.174,2.387,0.233
		c0.806,0.055,1.619,0.067,2.438,0.069c0.818-0.026,1.643-0.041,2.472-0.103c0.829-0.036,1.658-0.148,2.492-0.233
		c0.831-0.123,1.673-0.206,2.506-0.367c0.839-0.131,1.672-0.309,2.513-0.476c0.843-0.155,1.671-0.387,2.515-0.573l2.515-0.66
		c1.673-0.477,3.351-0.989,5.029-1.529L242.666,213.797z"/>
</g>
<g>
	<path d="M250.062,213.711c0,0-0.292,0.318-0.84,0.916c-0.563,0.582-1.343,1.475-2.45,2.516c-1.094,1.056-2.428,2.333-4.056,3.693
		c-0.812,0.684-1.682,1.407-2.64,2.121c-0.937,0.744-1.97,1.464-3.05,2.218c-2.178,1.483-4.636,2.978-7.383,4.336
		c-2.742,1.368-5.783,2.588-9.098,3.476c-3.316,0.876-6.9,1.434-10.722,1.24c-0.959-0.046-1.928-0.156-2.943-0.352
		c-0.258-0.053-0.514-0.104-0.786-0.173l-0.424-0.112l-0.247-0.075l-0.099-0.033l-0.204-0.077l-0.074-0.029l-1.171-0.458
		c-1.573-0.607-3.153-1.218-4.733-1.827c-1.579-0.608-3.159-1.2-4.73-1.768c-1.563-0.581-3.128-1.147-4.628-1.621l-1.098-0.331
		l-1.13-0.289c-0.806-0.218-1.607-0.434-2.403-0.649c-0.726-0.157-1.446-0.314-2.163-0.471c-0.735-0.13-1.467-0.26-2.191-0.388
		c-2.913-0.438-5.72-0.519-8.31-0.199c-0.324,0.041-0.646,0.082-0.966,0.123c-0.313,0.063-0.624,0.127-0.934,0.189
		c-0.629,0.101-1.213,0.296-1.813,0.44c-1.157,0.378-2.279,0.785-3.294,1.319c-2.059,1.023-3.769,2.373-5.173,3.736
		c-1.393,1.377-2.469,2.777-3.296,3.986c-0.802,1.225-1.372,2.254-1.733,2.973c-0.355,0.721-0.526,1.124-0.526,1.124
		s-0.012-0.438,0.09-1.254c0.103-0.814,0.285-2.021,0.753-3.508c0.457-1.487,1.159-3.286,2.348-5.187
		c1.193-1.881,2.844-3.921,5.144-5.624c2.261-1.747,5.145-3.128,8.329-3.903c3.182-0.805,6.644-1.022,10.099-0.73
		c0.861,0.095,1.727,0.157,2.607,0.285c0.882,0.156,1.771,0.313,2.664,0.471c0.805,0.182,1.614,0.364,2.429,0.548l1.303,0.319
		l1.319,0.381c3.409,1.043,6.605,2.279,9.831,3.557c1.608,0.632,3.201,1.293,4.783,1.969l1.19,0.51l0.073,0.031
		c0.137,0.054-0.14-0.053-0.13-0.049c-0.007-0.003-0.03-0.01-0.023-0.008l0.057,0.021l0.19,0.058l0.452,0.117
		c0.645,0.146,1.354,0.256,2.074,0.336c2.902,0.299,5.971,0.061,8.903-0.455c2.946-0.511,5.786-1.328,8.452-2.255
		c2.666-0.933,5.154-1.992,7.438-3.037c2.27-1.074,4.341-2.125,6.158-3.111c1.81-0.996,3.414-1.858,4.688-2.632
		C248.576,214.585,250.062,213.711,250.062,213.711z"/>
</g>
<g>
	<path d="M264.814,213.681c0,0-1.377,1.237-3.786,3.403c-2.418,2.158-5.931,5.167-10.265,8.67c-2.178,1.741-4.545,3.617-7.195,5.481
		c-0.678,0.456-1.363,0.919-2.059,1.387c-0.753,0.431-1.434,0.908-2.279,1.315c-1.518,0.74-3.068,1.497-4.645,2.266
		c-3.212,1.519-6.701,2.887-10.39,3.826c-3.685,0.946-7.552,1.553-11.461,1.67c-3.904,0.074-7.842-0.16-11.657-0.856
		c-0.969-0.114-1.885-0.412-2.826-0.61c-0.93-0.234-1.878-0.418-2.772-0.728c-0.897-0.304-1.793-0.602-2.671-0.926
		c-0.804-0.286-1.603-0.571-2.394-0.854c-0.809-0.307-1.611-0.611-2.405-0.914l-0.592-0.221l-0.534-0.146
		c-0.354-0.106-0.704-0.212-1.054-0.317c-0.706-0.2-1.375-0.454-2.092-0.617c-0.726-0.161-1.441-0.32-2.148-0.478
		c-0.354-0.075-0.706-0.174-1.058-0.229c-0.353-0.047-0.703-0.095-1.05-0.142c-0.699-0.097-1.387-0.192-2.063-0.286
		c-0.681-0.038-1.35-0.076-2.006-0.113c-0.33-0.017-0.659-0.047-0.982-0.053c-0.324,0.008-0.645,0.016-0.961,0.023
		c-2.559-0.03-4.889,0.368-6.981,0.744c-1.029,0.243-2.02,0.446-2.895,0.752c-0.905,0.241-1.709,0.543-2.448,0.811
		c-1.459,0.564-2.604,1.082-3.362,1.476c-0.771,0.385-1.153,0.617-1.153,0.617l-0.486-0.502c-0.001,0,0.276-0.417,0.88-1.086
		c0.594-0.687,1.539-1.619,2.871-2.681c1.333-1.059,3.081-2.195,5.25-3.253c2.18-0.989,4.773-1.999,7.747-2.469
		c0.37-0.071,0.745-0.144,1.124-0.216c0.38-0.058,0.766-0.076,1.155-0.116c0.783-0.068,1.581-0.138,2.393-0.208
		c0.813,0.012,1.639,0.023,2.478,0.035c0.421,0.009,0.846,0.019,1.273,0.028c0.425,0.026,0.846,0.097,1.274,0.145
		c0.856,0.11,1.726,0.223,2.604,0.336c0.88,0.148,1.782,0.408,2.689,0.618c0.455,0.112,0.912,0.226,1.371,0.34l0.688,0.185
		l0.602,0.218c0.799,0.293,1.604,0.588,2.416,0.887c0.829,0.326,1.664,0.656,2.506,0.988c0.765,0.298,1.525,0.626,2.294,0.953
		c0.767,0.334,1.577,0.536,2.367,0.833c0.801,0.252,1.587,0.608,2.416,0.783c3.27,0.953,6.711,1.482,10.188,1.649
		c6.977,0.241,13.958-1.274,20.238-3.678c1.59-0.627,3.153-1.244,4.685-1.848c0.684-0.256,1.396-0.673,2.085-0.995
		c0.693-0.382,1.379-0.76,2.055-1.132c2.698-1.552,5.201-3.187,7.499-4.704c4.596-3.05,8.327-5.766,10.966-7.627
		c2.617-1.895,4.112-2.977,4.112-2.977L264.814,213.681z"/>
</g>
</svg>
