<?xml version="1.0" encoding="utf-8"?>
<!-- Generator: Adobe Illustrator 16.0.2, SVG Export Plug-In . SVG Version: 6.00 Build 0)  -->
<!DOCTYPE svg PUBLIC "-//W3C//DTD SVG 1.1//EN" "http://www.w3.org/Graphics/SVG/1.1/DTD/svg11.dtd">
<svg version="1.1" id="Layer_1" xmlns="http://www.w3.org/2000/svg" xmlns:xlink="http://www.w3.org/1999/xlink" x="0px" y="0px"
	 width="300px" height="300px" viewBox="0 0 300 300" enable-background="new 0 0 300 300" xml:space="preserve">
<g>
	<line fill="none" stroke="#353535" stroke-width="0.75" stroke-miterlimit="10" x1="269.688" y1="21.04" x2="269.688" y2="270"/>
	<ellipse fill="#353535" cx="269.688" cy="27.798" rx="3.18" ry="2.681"/>
	<ellipse fill="none" stroke="#353535" stroke-miterlimit="10" cx="269.688" cy="27.798" rx="3.18" ry="2.681"/>
	<text transform="matrix(1 0 0 1.0509 195.4521 102.2261)" font-family="'ArialMT'" font-size="8.8139"> </text>
	<text transform="matrix(0.9255 0 0 1 54.333 137.0757)" fill="#353535" font-family="'ArialMT'" font-size="11.7891">SANTO DOMINGO - REP. DOMINICANA</text>
	<text transform="matrix(1.3994 0 0 1 133.7637 158.7441)" fill="#353535" font-family="'TimesNewRomanPSMT'" font-size="9.7008">JUN  /  10 - 12  / 2017</text>
	<text transform="matrix(1.0627 0 0 1 120.5547 187.2803)"><tspan x="0" y="0" fill="#353535" font-family="'ArialMT'" font-size="13.4733">S</tspan><tspan x="8.987" y="0" fill="#353535" font-family="'ArialMT'" font-size="13.4733" letter-spacing="-0.941">P</tspan><tspan x="16.976" y="0" fill="#353535" font-family="'ArialMT'" font-size="13.4733">ANISH / ENGLISH</tspan></text>
	<ellipse fill="#353535" cx="269.688" cy="133.006" rx="3.18" ry="2.681"/>
	<ellipse fill="none" stroke="#353535" stroke-miterlimit="10" cx="269.688" cy="133.006" rx="3.18" ry="2.681"/>
	<ellipse fill="#353535" cx="269.688" cy="155.953" rx="3.18" ry="2.681"/>
	<ellipse fill="none" stroke="#353535" stroke-miterlimit="10" cx="269.688" cy="155.953" rx="3.18" ry="2.681"/>
	<ellipse fill="#353535" cx="269.688" cy="182.742" rx="3.18" ry="2.681"/>
	<ellipse fill="none" stroke="#353535" stroke-miterlimit="10" cx="269.688" cy="182.742" rx="3.18" ry="2.681"/>
	
		<line fill="none" stroke="#000000" stroke-width="0.4" stroke-miterlimit="10" x1="97.41" y1="119.688" x2="255.706" y2="119.688"/>
	<rect x="51" y="22.779" fill="none" width="208.5" height="94.221"/>
	<text transform="matrix(1.0265 0 0 1 68.2314 32.2578)"><tspan x="0" y="0" fill="#353535" font-family="'TimesNewRomanPSMT'" font-size="13.6381">The apostle Paul wrote, “Eye hath </tspan><tspan x="-11.334" y="16.366" fill="#353535" font-family="'TimesNewRomanPSMT'" font-size="13.6381">not seen, nor ear heard, neither have </tspan><tspan x="5.694" y="32.731" fill="#353535" font-family="'TimesNewRomanPSMT'" font-size="13.6381">entered into the heart of man, the </tspan><tspan x="-7.964" y="49.097" fill="#353535" font-family="'TimesNewRomanPSMT'" font-size="13.6381">things which God hath prepared for </tspan><tspan x="77.627" y="65.463" fill="#353535" font-family="'TimesNewRomanPSMT'" font-size="13.6381">them that love him” </tspan><tspan x="72.306" y="81.829" fill="#353535" font-family="'TimesNewRomanPSMT'" font-size="13.6381">(1 Corinthians 2:9)...</tspan></text>
</g>
</svg>
