<?xml version="1.0" encoding="utf-8"?>
<!-- Generator: Adobe Illustrator 16.0.2, SVG Export Plug-In . SVG Version: 6.00 Build 0)  -->
<!DOCTYPE svg PUBLIC "-//W3C//DTD SVG 1.1//EN" "http://www.w3.org/Graphics/SVG/1.1/DTD/svg11.dtd">
<svg version="1.1" id="Layer_1" xmlns="http://www.w3.org/2000/svg" xmlns:xlink="http://www.w3.org/1999/xlink" x="0px" y="0px"
	 width="300px" height="300px" viewBox="0 0 300 300" enable-background="new 0 0 300 300" xml:space="preserve">
<g>
	<line fill="none" stroke="#353535" stroke-width="0.75" stroke-miterlimit="10" x1="269.688" y1="15.04" x2="269.688" y2="264"/>
	<ellipse fill="#353535" cx="269.688" cy="27.798" rx="3.181" ry="2.681"/>
	<ellipse fill="none" stroke="#353535" stroke-miterlimit="10" cx="269.688" cy="27.798" rx="3.181" ry="2.681"/>
	<text transform="matrix(0.9516 0 0 1 195.4521 102.2256)" font-family="'ArialMT'" font-size="9.2625"> </text>
	<text transform="matrix(1.1296 0 0 1 137.832 133.0762)" fill="#353535" font-family="'ArialMT'" font-size="11.7891">MHI - GUATEMALA</text>
	<text transform="matrix(1.3994 0 0 1 133.7637 157.7441)" fill="#353535" font-family="'TimesNewRomanPSMT'" font-size="9.7008">FEB  /  10 - 12  / 2017</text>
	<text transform="matrix(1.0627 0 0 1 120.5547 187.2803)" fill="#353535" font-family="'ArialMT'" font-size="13.4733">S</text>
	<text transform="matrix(1.0627 0 0 1 130.1045 187.2803)" fill="#353535" font-family="'ArialMT'" font-size="13.4733">P</text>
	<text transform="matrix(1.0627 0 0 1 138.5947 187.2803)" fill="#353535" font-family="'ArialMT'" font-size="13.4733">ANISH / ENGLISH</text>
	<ellipse fill="#353535" cx="269.688" cy="128.006" rx="3.181" ry="2.681"/>
	<ellipse fill="none" stroke="#353535" stroke-miterlimit="10" cx="269.688" cy="128.006" rx="3.181" ry="2.681"/>
	<ellipse fill="#353535" cx="269.688" cy="154.953" rx="3.181" ry="2.681"/>
	<ellipse fill="none" stroke="#353535" stroke-miterlimit="10" cx="269.688" cy="154.953" rx="3.181" ry="2.681"/>
	<ellipse fill="#353535" cx="269.688" cy="182.742" rx="3.181" ry="2.681"/>
	<ellipse fill="none" stroke="#353535" stroke-miterlimit="10" cx="269.688" cy="182.742" rx="3.181" ry="2.681"/>
	<text transform="matrix(0.9675 0 0 1 91.5605 32.3818)" fill="#353535" font-family="'TimesNewRomanPSMT'" font-size="14.4518"> </text>
	<text transform="matrix(0.9675 0 0 1 64.4834 67.0645)" fill="#353535" font-family="'TimesNewRomanPSMT'" font-size="14.4518">   </text>
	
		<line fill="none" stroke="#000000" stroke-width="0.4" stroke-miterlimit="10" x1="97.41" y1="104.688" x2="255.706" y2="104.688"/>
	<text transform="matrix(1.0061 0 0 1 39.4844 83.5645)" fill="#353535" font-family="'TimesNewRomanPSMT'" font-size="14.4518">   </text>
</g>
<rect x="43.5" y="22" fill="none" width="214" height="76"/>
<text transform="matrix(0.9596 0 0 1 94.6699 31.0347)"><tspan x="0" y="0" fill="#353535" font-family="'TimesNewRomanPSMT'" font-size="13">During Israel’s walk through the </tspan><tspan x="-46.573" y="15.6" fill="#353535" font-family="'TimesNewRomanPSMT'" font-size="13">wilderness, God instituted the celebration </tspan><tspan x="-13.698" y="31.2" fill="#353535" font-family="'TimesNewRomanPSMT'" font-size="13">of seven feasts that commemorated </tspan><tspan x="-35.014" y="46.8" fill="#353535" font-family="'TimesNewRomanPSMT'" font-size="13">important historic events for the people </tspan><tspan x="103.612" y="62.4" fill="#353535" font-family="'TimesNewRomanPSMT'" font-size="13">and for God.</tspan></text>
</svg>
