<?xml version="1.0" encoding="utf-8"?>
<!-- Generator: Adobe Illustrator 16.0.2, SVG Export Plug-In . SVG Version: 6.00 Build 0)  -->
<!DOCTYPE svg PUBLIC "-//W3C//DTD SVG 1.1//EN" "http://www.w3.org/Graphics/SVG/1.1/DTD/svg11.dtd">
<svg version="1.1" id="Layer_1" xmlns="http://www.w3.org/2000/svg" xmlns:xlink="http://www.w3.org/1999/xlink" x="0px" y="0px"
	 width="300px" height="300px" viewBox="0 0 300 300" enable-background="new 0 0 300 300" xml:space="preserve">
<g>
	<line fill="none" stroke="#353535" stroke-width="0.75" stroke-miterlimit="10" x1="269.688" y1="15.04" x2="269.688" y2="264"/>
	<ellipse fill="#353535" cx="269.688" cy="27.798" rx="3.18" ry="2.681"/>
	<ellipse fill="none" stroke="#353535" stroke-miterlimit="10" cx="269.688" cy="27.798" rx="3.18" ry="2.681"/>
	<text transform="matrix(1 0 0 1.0509 195.4521 102.2261)" font-family="'ArialMT'" font-size="8.8139"> </text>
	<text transform="matrix(1.1296 0 0 1 113.832 133.0757)" fill="#353535" font-family="'ArialMT'" font-size="11.7891">CONCEPCION - CHILE</text>
	<text transform="matrix(1.3994 0 0 1 133.7637 157.7441)" fill="#353535" font-family="'TimesNewRomanPSMT'" font-size="9.7008">JUN  /  10 - 12  / 2017</text>
	<text transform="matrix(1.0627 0 0 1 120.5547 187.2803)"><tspan x="0" y="0" fill="#353535" font-family="'ArialMT'" font-size="13.4733">S</tspan><tspan x="8.987" y="0" fill="#353535" font-family="'ArialMT'" font-size="13.4733" letter-spacing="-0.941">P</tspan><tspan x="16.976" y="0" fill="#353535" font-family="'ArialMT'" font-size="13.4733">ANISH / ENGLISH</tspan></text>
	<ellipse fill="#353535" cx="269.688" cy="128.006" rx="3.18" ry="2.681"/>
	<ellipse fill="none" stroke="#353535" stroke-miterlimit="10" cx="269.688" cy="128.006" rx="3.18" ry="2.681"/>
	<ellipse fill="#353535" cx="269.688" cy="154.953" rx="3.18" ry="2.681"/>
	<ellipse fill="none" stroke="#353535" stroke-miterlimit="10" cx="269.688" cy="154.953" rx="3.18" ry="2.681"/>
	<ellipse fill="#353535" cx="269.688" cy="182.742" rx="3.18" ry="2.681"/>
	<ellipse fill="none" stroke="#353535" stroke-miterlimit="10" cx="269.688" cy="182.742" rx="3.18" ry="2.681"/>
	
		<text transform="matrix(1 0 0 1.0336 78.5898 32.3818)" fill="#353535" font-family="'TimesNewRomanPS-BoldMT'" font-size="16.448">E</text>
	<text transform="matrix(1 0 0 1.0336 90.5605 32.3818)" fill="#353535" font-family="'TimesNewRomanPSMT'" font-size="13.982"> very true Christian knows the  </text>
	<text transform="matrix(1 0 0 1.0336 42.5879 49.7231)" fill="#353535" font-family="'TimesNewRomanPSMT'" font-size="13.982">        Joy experienced when God’s life is </text>
	<text transform="matrix(1 0 0 1.0336 72.4834 67.0645)" fill="#353535" font-family="'TimesNewRomanPSMT'" font-size="13.982">   placed in his heart when his born </text>
	
		<line fill="none" stroke="#000000" stroke-width="0.4" stroke-miterlimit="10" x1="97.41" y1="104.688" x2="255.706" y2="104.688"/>
	
		<text transform="matrix(1.0399 0 0 1.0336 52.4844 83.5645)" fill="#353535" font-family="'TimesNewRomanPSMT'" font-size="13.982">   again. Sadly, it is common to find ...</text>
</g>
</svg>
