<?xml version="1.0" encoding="utf-8"?>
<!-- Generator: Adobe Illustrator 16.0.2, SVG Export Plug-In . SVG Version: 6.00 Build 0)  -->
<!DOCTYPE svg PUBLIC "-//W3C//DTD SVG 1.1//EN" "http://www.w3.org/Graphics/SVG/1.1/DTD/svg11.dtd">
<svg version="1.1" id="Layer_1" xmlns="http://www.w3.org/2000/svg" xmlns:xlink="http://www.w3.org/1999/xlink" x="0px" y="0px"
	 width="300px" height="300px" viewBox="0 0 300 300" enable-background="new 0 0 300 300" xml:space="preserve">
<g>
	<line fill="none" stroke="#353535" stroke-width="0.75" stroke-miterlimit="10" x1="269.688" y1="15.04" x2="269.688" y2="264"/>
	<ellipse fill="#353535" cx="269.688" cy="27.798" rx="3.181" ry="2.681"/>
	<ellipse fill="none" stroke="#353535" stroke-miterlimit="10" cx="269.688" cy="27.798" rx="3.181" ry="2.681"/>
	<text transform="matrix(0.9516 0 0 1 195.4521 102.2256)" font-family="'ArialMT'" font-size="9.2625"> </text>
	<text transform="matrix(1.1296 0 0 1 157.832 133.0762)" fill="#353535" font-family="'ArialMT'" font-size="11.7891">VIRGINIA - USA</text>
	<text transform="matrix(1.3994 0 0 1 133.7637 157.7441)" fill="#353535" font-family="'TimesNewRomanPSMT'" font-size="9.7008">JUL  /  19 - 21  / 2017</text>
	<text transform="matrix(1.0627 0 0 1 120.5547 187.2803)" fill="#353535" font-family="'ArialMT'" font-size="13.4733">S</text>
	<text transform="matrix(1.0627 0 0 1 130.1045 187.2803)" fill="#353535" font-family="'ArialMT'" font-size="13.4733">P</text>
	<text transform="matrix(1.0627 0 0 1 138.5947 187.2803)" fill="#353535" font-family="'ArialMT'" font-size="13.4733">ANISH / ENGLISH</text>
	<ellipse fill="#353535" cx="269.688" cy="128.006" rx="3.181" ry="2.681"/>
	<ellipse fill="none" stroke="#353535" stroke-miterlimit="10" cx="269.688" cy="128.006" rx="3.181" ry="2.681"/>
	<ellipse fill="#353535" cx="269.688" cy="154.953" rx="3.181" ry="2.681"/>
	<ellipse fill="none" stroke="#353535" stroke-miterlimit="10" cx="269.688" cy="154.953" rx="3.181" ry="2.681"/>
	<ellipse fill="#353535" cx="269.688" cy="182.742" rx="3.181" ry="2.681"/>
	<ellipse fill="none" stroke="#353535" stroke-miterlimit="10" cx="269.688" cy="182.742" rx="3.181" ry="2.681"/>
	
		<line fill="none" stroke="#000000" stroke-width="0.4" stroke-miterlimit="10" x1="97.41" y1="109.688" x2="255.706" y2="109.688"/>
	<rect x="51" y="22.779" fill="none" width="208.5" height="94.221"/>
	<rect x="45.5" y="24.5" fill="none" width="209.5" height="98"/>
	<text transform="matrix(1 0 0 1 75.209 33.5347)"><tspan x="0" y="0" fill="#353535" font-family="'TimesNewRomanPSMT'" font-size="13">The natural man questions himself </tspan><tspan x="-24.584" y="15.6" fill="#353535" font-family="'TimesNewRomanPSMT'" font-size="13">about his origin. Sadly, Satan has sown </tspan><tspan x="-29.593" y="31.2" fill="#353535" font-family="'TimesNewRomanPSMT'" font-size="13">seeds of doubt in many believers’ hearts </tspan><tspan x="-8.277" y="46.8" fill="#353535" font-family="'TimesNewRomanPSMT'" font-size="13">concerning the relationship between </tspan><tspan x="47.684" y="62.4" fill="#353535" font-family="'TimesNewRomanPSMT'" font-size="13">“science” and the Bible...</tspan></text>
</g>
</svg>
