<?xml version="1.0" encoding="utf-8"?>
<!-- Generator: Adobe Illustrator 16.0.2, SVG Export Plug-In . SVG Version: 6.00 Build 0)  -->
<!DOCTYPE svg PUBLIC "-//W3C//DTD SVG 1.1//EN" "http://www.w3.org/Graphics/SVG/1.1/DTD/svg11.dtd">
<svg version="1.1" id="Layer_1" xmlns="http://www.w3.org/2000/svg" xmlns:xlink="http://www.w3.org/1999/xlink" x="0px" y="0px"
	 width="100px" height="100px" viewBox="0 0 100 100" enable-background="new 0 0 100 100" xml:space="preserve">

<a id="anchor" xlink:href="../../index.html" target="_top">
    
<polyline fill="#CCCCCC" points="4.167,62.659 4.167,73.757 7.467,73.757 7.467,68.206 11.767,66.857 11.767,73.757 14.865,73.757 
	14.865,54.86 11.964,56.06 11.916,63.327 11.279,63.521 7.49,64.982 7.467,59.259 "/>
<path fill="#CCCCCC" d="M17.089,54.373c0,1.311,0,19.384,0,19.384h2.962v-15.56h0.376l2.962,15.56h2.437l3.185-14.397l0.414,0.075
	v14.321h2.662c0,0,0.226-15.934,0-16.608c-0.225-0.677-5.224-2.289-5.224-2.289L24.48,67.796l-2.555-13.857
	c0,0-1.911-0.176-3.074,0.047"/>
<path fill="#CCCCCC" d="M34.377,58.61v15.146h3.113c0,0,0.223-11.886,0-12.411C37.262,60.821,34.377,58.61,34.377,58.61z"/>
<polygon fill="#CCCCCC" points="12.026,26.927 12.026,30.751 18.026,30.751 18.026,52.124 21.703,52.124 21.703,30.751 
	27.775,30.751 27.775,26.927 21.703,26.927 21.703,21.677 18.141,21.677 18.102,26.927 "/>
<line fill="#676767" stroke="#C7CED1" stroke-width="0.4" stroke-miterlimit="10" x1="40.964" y1="29.868" x2="40.964" y2="72.315"/>
<text transform="matrix(1.0839 0 0 1 43.6934 40.0283)" fill="#CCCCCC" font-family="'TimesNewRomanPSMT'" font-size="10.2561">HEBRON</text>
<text transform="matrix(0.8168 0 0 1 43.6943 54.4395)" fill="#CCCCCC" font-family="'TimesNewRomanPSMT'" font-size="10.2561">MINISTERIAL</text>
<text transform="matrix(1 0 0 1 43.6943 68.5938)" fill="#CCCCCC" font-family="'TimesNewRomanPSMT'" font-size="10.2561">INSTITUTE</text>
</a>
</svg>
